<svg width="26" height="26" viewBox="0 0 26 26" fill="none" xmlns="http://www.w3.org/2000/svg">
<path d="M0.579487 25.3531C-0.20585 24.5075 -0.187574 23.1558 0.620307 22.3338L21.9754 0.606513C22.7832 -0.215449 24.0748 -0.196321 24.8601 0.649237C25.6455 1.4948 25.6272 2.84659 24.8193 3.66855L3.46426 25.3958C2.65638 26.2178 1.36482 26.1987 0.579487 25.3531Z" fill="white"/>
<path d="M0.53857 0.689733C1.30131 -0.178191 2.59187 -0.234623 3.42112 0.563688L25.341 21.6658C26.1702 22.4641 26.2242 23.8148 25.4614 24.6828C24.6987 25.5507 23.4081 25.6071 22.5789 24.8088L0.658999 3.70672C-0.17025 2.90841 -0.224168 1.55766 0.53857 0.689733Z" fill="white"/>
</svg>
